<svg width="35" height="31" viewBox="0 0 35 31" fill="none" xmlns="http://www.w3.org/2000/svg">
<path d="M6.5625 0.00276792H2.1875C0.97959 0.00276792 0 0.993661 0 2.15478V17.5925C0 18.8152 0.97959 19.7445 2.1875 19.7445H6.5625C7.77041 19.7445 8.75 18.7529 8.75 17.5925V2.21636C8.75 0.993661 7.77246 0.00276792 6.5625 0.00276792ZM31.9443 14.4067C32.4775 13.8185 32.8125 13.0366 32.8125 12.1717C32.8125 10.5476 31.6593 9.20174 30.1369 8.91319C30.4404 8.41428 30.625 7.82612 30.625 7.13415C30.625 5.65888 29.668 4.42304 28.3521 3.99056C28.4033 3.81411 28.4375 3.57123 28.4375 3.32004C28.4375 1.48565 26.9678 0 25.1562 0H21.1442C18.7783 0 16.4767 0.776384 14.5838 2.2129L12.25 3.98364C11.4229 4.61056 10.9375 5.59799 10.9375 6.58058L10.9448 17.652C10.9448 17.652 10.9432 17.6504 10.9448 17.652C10.9496 18.6201 11.3634 19.5854 12.1692 20.2372L13.2834 21.1388C18.8809 25.7341 16.3652 31 20.6787 31C22.7951 31 24.0604 29.3033 24.0604 27.671C24.0604 26.6226 23.2565 23.6493 21.7007 21.0267H31.7188C33.5316 21.0267 35 19.5411 35 17.7067C35 15.9498 33.6465 14.5243 31.9443 14.4067Z" fill="black"/>
</svg>
