<svg width="35" height="31" viewBox="0 0 35 31" fill="none" xmlns="http://www.w3.org/2000/svg">
<path d="M8.75 28.7234V13.2234C8.75 12.0007 7.77041 11.0714 6.5625 11.0714H2.1875C0.97959 11.0714 0 12.063 0 13.2234V28.6612C0 29.8839 0.97959 30.8132 2.1875 30.8132H6.5625C7.77246 30.9377 8.75 30.0036 8.75 28.7234ZM35 13.2926C35 11.4589 33.5316 9.97259 31.7188 9.97259H21.7041C23.2606 7.34935 24.0639 4.37598 24.0639 3.32835C24.0625 1.6967 22.7979 0 20.6787 0C16.3632 0 18.8768 5.26931 13.2822 9.79821L12.168 10.6978C11.3613 11.3551 10.9512 12.317 10.9443 13.2857C10.9427 13.2873 10.9443 13.2857 10.9443 13.2857L10.9375 24.3571C10.9375 25.402 11.4237 26.3867 12.25 27.0136L14.5838 28.7843C16.4746 30.225 18.7783 31 21.1436 31H25.1562C26.9691 31 28.4375 29.5144 28.4375 27.68C28.4375 27.4284 28.4047 27.1857 28.3523 26.9499C29.668 26.5161 30.625 25.2844 30.625 23.8036C30.625 23.1706 30.4406 22.585 30.137 22.082C31.6572 21.7969 32.8125 20.4475 32.8125 18.8283C32.8125 17.9634 32.478 17.1829 31.943 16.5919C33.6465 16.4757 35 15.0502 35 13.2926Z" fill="black"/>
</svg>
