<svg width="754" height="769" viewBox="0 0 754 769" fill="none" xmlns="http://www.w3.org/2000/svg">
<g style="mix-blend-mode:hard-light" filter="url(#filter0_f_538_9)">
<path d="M434.922 481.859L310 697.34L271.264 568.907M434.922 481.859L595.163 587.443M434.922 481.859C727.618 424.388 801.664 409.162 535.951 311.934M434.922 481.859L535.951 311.934M535.951 311.934C483.657 292.799 418.203 270.487 338.667 244.053M232.529 440.474L155.057 183.608C223.069 205.895 284.173 225.942 338.667 244.053M232.529 440.474L338.667 244.053M232.529 440.474L271.264 568.907M271.264 568.907L428.829 277.241" stroke="#023559" stroke-width="9.75"/>
</g>
<g style="mix-blend-mode:hard-light" filter="url(#filter1_f_538_9)">
<path d="M434.922 481.859L310 697.34L271.264 568.907M434.922 481.859L595.163 587.443M434.922 481.859C727.618 424.388 801.664 409.162 535.951 311.934M434.922 481.859L535.951 311.934M535.951 311.934C483.657 292.799 418.203 270.487 338.667 244.053M232.529 440.474L155.057 183.608C223.069 205.895 284.173 225.942 338.667 244.053M232.529 440.474L338.667 244.053M232.529 440.474L271.264 568.907M271.264 568.907L428.829 277.241" stroke="#023559" stroke-width="12.75"/>
</g>
<g style="mix-blend-mode:hard-light" filter="url(#filter2_ddi_538_9)">
<path d="M434.922 481.859L310 697.34L271.264 568.907M434.922 481.859L595.163 587.443M434.922 481.859C727.618 424.388 801.664 409.162 535.951 311.934M434.922 481.859L535.951 311.934M535.951 311.934C483.657 292.799 418.203 270.487 338.667 244.053M232.529 440.474L155.057 183.608C223.069 205.895 284.173 225.942 338.667 244.053M232.529 440.474L338.667 244.053M232.529 440.474L271.264 568.907M271.264 568.907L428.829 277.241" stroke="#00B3FF" stroke-opacity="0.2" stroke-width="9.75"/>
</g>
<g filter="url(#filter3_f_538_9)">
<path d="M434.922 481.859L310 697.34L271.264 568.907M434.922 481.859L595.163 587.443M434.922 481.859C727.618 424.388 801.664 409.162 535.951 311.934M434.922 481.859L535.951 311.934M535.951 311.934C483.657 292.799 418.203 270.487 338.667 244.053M232.529 440.474L155.057 183.608C223.069 205.895 284.173 225.942 338.667 244.053M232.529 440.474L338.667 244.053M232.529 440.474L271.264 568.907M271.264 568.907L428.829 277.241" stroke="#82D9FF" stroke-width="6"/>
</g>
<g filter="url(#filter4_f_538_9)">
<path d="M434.922 481.859L310 697.34L271.264 568.907M434.922 481.859L595.163 587.443M434.922 481.859C727.618 424.388 801.664 409.162 535.951 311.934M434.922 481.859L535.951 311.934M535.951 311.934C483.657 292.799 418.203 270.487 338.667 244.053M232.529 440.474L155.057 183.608C223.069 205.895 284.173 225.942 338.667 244.053M232.529 440.474L338.667 244.053M232.529 440.474L271.264 568.907M271.264 568.907L428.829 277.241" stroke="white" stroke-width="3"/>
</g>
<defs>
<filter id="filter0_f_538_9" x="102.69" y="131.064" width="647.115" height="623.448" filterUnits="userSpaceOnUse" color-interpolation-filters="sRGB">
<feFlood flood-opacity="0" result="BackgroundImageFix"/>
<feBlend mode="normal" in="SourceGraphic" in2="BackgroundImageFix" result="shape"/>
<feGaussianBlur stdDeviation="22.5" result="effect1_foregroundBlur_538_9"/>
</filter>
<filter id="filter1_f_538_9" x="130.423" y="158.743" width="590.881" height="569.514" filterUnits="userSpaceOnUse" color-interpolation-filters="sRGB">
<feFlood flood-opacity="0" result="BackgroundImageFix"/>
<feBlend mode="normal" in="SourceGraphic" in2="BackgroundImageFix" result="shape"/>
<feGaussianBlur stdDeviation="7.5" result="effect1_foregroundBlur_538_9"/>
</filter>
<filter id="filter2_ddi_538_9" x="128.19" y="171.564" width="596.115" height="572.448" filterUnits="userSpaceOnUse" color-interpolation-filters="sRGB">
<feFlood flood-opacity="0" result="BackgroundImageFix"/>
<feColorMatrix in="SourceAlpha" type="matrix" values="0 0 0 0 0 0 0 0 0 0 0 0 0 0 0 0 0 0 127 0" result="hardAlpha"/>
<feOffset dy="9.75"/>
<feGaussianBlur stdDeviation="3.75"/>
<feColorMatrix type="matrix" values="0 0 0 0 0 0 0 0 0 0.051 0 0 0 0 0.082 0 0 0 0.7 0"/>
<feBlend mode="multiply" in2="BackgroundImageFix" result="effect1_dropShadow_538_9"/>
<feColorMatrix in="SourceAlpha" type="matrix" values="0 0 0 0 0 0 0 0 0 0 0 0 0 0 0 0 0 0 127 0" result="hardAlpha"/>
<feOffset dy="15"/>
<feGaussianBlur stdDeviation="9.75"/>
<feColorMatrix type="matrix" values="0 0 0 0 0 0 0 0 0 0.4 0 0 0 0 1 0 0 0 1 0"/>
<feBlend mode="color-dodge" in2="effect1_dropShadow_538_9" result="effect2_dropShadow_538_9"/>
<feBlend mode="normal" in="SourceGraphic" in2="effect2_dropShadow_538_9" result="shape"/>
<feColorMatrix in="SourceAlpha" type="matrix" values="0 0 0 0 0 0 0 0 0 0 0 0 0 0 0 0 0 0 127 0" result="hardAlpha"/>
<feOffset dx="-0.975" dy="1.95"/>
<feGaussianBlur stdDeviation="0.4875"/>
<feComposite in2="hardAlpha" operator="arithmetic" k2="-1" k3="1"/>
<feColorMatrix type="matrix" values="0 0 0 0 1 0 0 0 0 1 0 0 0 0 1 0 0 0 0.5 0"/>
<feBlend mode="normal" in2="shape" result="effect3_innerShadow_538_9"/>
</filter>
<filter id="filter3_f_538_9" x="149.024" y="177.465" width="555.406" height="528.865" filterUnits="userSpaceOnUse" color-interpolation-filters="sRGB">
<feFlood flood-opacity="0" result="BackgroundImageFix"/>
<feBlend mode="normal" in="SourceGraphic" in2="BackgroundImageFix" result="shape"/>
<feGaussianBlur stdDeviation="0.75" result="effect1_foregroundBlur_538_9"/>
</filter>
<filter id="filter4_f_538_9" x="151.791" y="180.287" width="550.639" height="521.799" filterUnits="userSpaceOnUse" color-interpolation-filters="sRGB">
<feFlood flood-opacity="0" result="BackgroundImageFix"/>
<feBlend mode="normal" in="SourceGraphic" in2="BackgroundImageFix" result="shape"/>
<feGaussianBlur stdDeviation="0.5" result="effect1_foregroundBlur_538_9"/>
</filter>
</defs>
</svg>
